<svg width="102" height="26" viewBox="0 0 102 26" fill="none" xmlns="http://www.w3.org/2000/svg">
<path d="M31.0547 7.5V9.54688H32.6328V10.6641H31.0547V15.9062C31.0547 16.2448 31.125 16.5 31.2656 16.6719C31.4062 16.8385 31.6458 16.9219 31.9844 16.9219C32.151 16.9219 32.3802 16.8906 32.6719 16.8281V18C32.2917 18.1042 31.9219 18.1562 31.5625 18.1562C30.9167 18.1562 30.4297 17.9609 30.1016 17.5703C29.7734 17.1797 29.6094 16.625 29.6094 15.9062V10.6641H28.0703V9.54688H29.6094V7.5H31.0547ZM35.8984 18H34.4531V9.54688H35.8984V18ZM34.3359 7.30469C34.3359 7.07031 34.4062 6.8724 34.5469 6.71094C34.6927 6.54948 34.9062 6.46875 35.1875 6.46875C35.4688 6.46875 35.6823 6.54948 35.8281 6.71094C35.974 6.8724 36.0469 7.07031 36.0469 7.30469C36.0469 7.53906 35.974 7.73438 35.8281 7.89062C35.6823 8.04688 35.4688 8.125 35.1875 8.125C34.9062 8.125 34.6927 8.04688 34.5469 7.89062C34.4062 7.73438 34.3359 7.53906 34.3359 7.30469ZM43.4375 18C43.3542 17.8333 43.2865 17.5365 43.2344 17.1094C42.5625 17.8073 41.7604 18.1562 40.8281 18.1562C39.9948 18.1562 39.3099 17.9219 38.7734 17.4531C38.2422 16.9792 37.9766 16.3802 37.9766 15.6562C37.9766 14.776 38.3099 14.0938 38.9766 13.6094C39.6484 13.1198 40.5911 12.875 41.8047 12.875H43.2109V12.2109C43.2109 11.7057 43.0599 11.3047 42.7578 11.0078C42.4557 10.7057 42.0104 10.5547 41.4219 10.5547C40.9062 10.5547 40.474 10.6849 40.125 10.9453C39.776 11.2057 39.6016 11.5208 39.6016 11.8906H38.1484C38.1484 11.4688 38.2969 11.0625 38.5938 10.6719C38.8958 10.276 39.3021 9.96354 39.8125 9.73438C40.3281 9.50521 40.8932 9.39062 41.5078 9.39062C42.4818 9.39062 43.2448 9.63542 43.7969 10.125C44.349 10.6094 44.6354 11.2786 44.6562 12.1328V16.0234C44.6562 16.7995 44.7552 17.4167 44.9531 17.875V18H43.4375ZM41.0391 16.8984C41.4922 16.8984 41.9219 16.7812 42.3281 16.5469C42.7344 16.3125 43.0286 16.0078 43.2109 15.6328V13.8984H42.0781C40.3073 13.8984 39.4219 14.4167 39.4219 15.4531C39.4219 15.9062 39.5729 16.2604 39.875 16.5156C40.1771 16.7708 40.5651 16.8984 41.0391 16.8984ZM46.5781 13.7031C46.5781 12.3854 46.8828 11.3385 47.4922 10.5625C48.1016 9.78125 48.9089 9.39062 49.9141 9.39062C50.9453 9.39062 51.75 9.75521 52.3281 10.4844L52.3984 9.54688H53.7188V17.7969C53.7188 18.8906 53.3932 19.7526 52.7422 20.3828C52.0964 21.013 51.2266 21.3281 50.1328 21.3281C49.5234 21.3281 48.9271 21.1979 48.3438 20.9375C47.7604 20.6771 47.3151 20.3203 47.0078 19.8672L47.7578 19C48.3776 19.7656 49.1354 20.1484 50.0312 20.1484C50.7344 20.1484 51.2812 19.9505 51.6719 19.5547C52.0677 19.1589 52.2656 18.6016 52.2656 17.8828V17.1562C51.6875 17.8229 50.8984 18.1562 49.8984 18.1562C48.9089 18.1562 48.1068 17.7578 47.4922 16.9609C46.8828 16.1641 46.5781 15.0781 46.5781 13.7031ZM48.0312 13.8672C48.0312 14.8203 48.2266 15.5703 48.6172 16.1172C49.0078 16.6589 49.5547 16.9297 50.2578 16.9297C51.1693 16.9297 51.8385 16.5156 52.2656 15.6875V11.8281C51.8229 11.0208 51.1589 10.6172 50.2734 10.6172C49.5703 10.6172 49.0208 10.8906 48.625 11.4375C48.2292 11.9844 48.0312 12.7943 48.0312 13.8672ZM55.5234 13.6953C55.5234 12.8672 55.6849 12.1224 56.0078 11.4609C56.3359 10.7995 56.7891 10.2891 57.3672 9.92969C57.9505 9.57031 58.6146 9.39062 59.3594 9.39062C60.5104 9.39062 61.4401 9.78906 62.1484 10.5859C62.862 11.3828 63.2188 12.4427 63.2188 13.7656V13.8672C63.2188 14.6901 63.0599 15.4297 62.7422 16.0859C62.4297 16.737 61.9792 17.2448 61.3906 17.6094C60.8073 17.974 60.1354 18.1562 59.375 18.1562C58.2292 18.1562 57.2995 17.7578 56.5859 16.9609C55.8776 16.1641 55.5234 15.1094 55.5234 13.7969V13.6953ZM56.9766 13.8672C56.9766 14.8047 57.1927 15.5573 57.625 16.125C58.0625 16.6927 58.6458 16.9766 59.375 16.9766C60.1094 16.9766 60.6927 16.6901 61.125 16.1172C61.5573 15.5391 61.7734 14.7318 61.7734 13.6953C61.7734 12.7682 61.5521 12.0182 61.1094 11.4453C60.6719 10.8672 60.0885 10.5781 59.3594 10.5781C58.6458 10.5781 58.0703 10.862 57.6328 11.4297C57.1953 11.9974 56.9766 12.8099 56.9766 13.8672ZM71.125 19.1797H63.9688V18H71.125V19.1797ZM73.8203 18H72.375V6H73.8203V18ZM81.3594 17.1641C80.7969 17.8255 79.9714 18.1562 78.8828 18.1562C77.9818 18.1562 77.2943 17.8958 76.8203 17.375C76.3516 16.849 76.1146 16.0729 76.1094 15.0469V9.54688H77.5547V15.0078C77.5547 16.2891 78.0755 16.9297 79.1172 16.9297C80.2214 16.9297 80.9557 16.5182 81.3203 15.6953V9.54688H82.7656V18H81.3906L81.3594 17.1641ZM88.3594 16.9766C88.875 16.9766 89.3255 16.8203 89.7109 16.5078C90.0964 16.1953 90.3099 15.8047 90.3516 15.3359H91.7188C91.6927 15.8203 91.526 16.2812 91.2188 16.7188C90.9115 17.1562 90.5 17.5052 89.9844 17.7656C89.474 18.026 88.9323 18.1562 88.3594 18.1562C87.2083 18.1562 86.2917 17.7734 85.6094 17.0078C84.9323 16.237 84.5938 15.1849 84.5938 13.8516V13.6094C84.5938 12.7865 84.7448 12.0547 85.0469 11.4141C85.349 10.7734 85.7812 10.276 86.3438 9.92188C86.9115 9.56771 87.5807 9.39062 88.3516 9.39062C89.2995 9.39062 90.0859 9.67448 90.7109 10.2422C91.3411 10.8099 91.6771 11.5469 91.7188 12.4531H90.3516C90.3099 11.9062 90.1016 11.4583 89.7266 11.1094C89.3568 10.7552 88.8984 10.5781 88.3516 10.5781C87.6172 10.5781 87.0469 10.8438 86.6406 11.375C86.2396 11.901 86.0391 12.6641 86.0391 13.6641V13.9375C86.0391 14.9115 86.2396 15.6615 86.6406 16.1875C87.0417 16.7135 87.6146 16.9766 88.3594 16.9766ZM94.7891 10.5703C95.4297 9.78385 96.263 9.39062 97.2891 9.39062C99.0755 9.39062 99.9766 10.3984 99.9922 12.4141V18H98.5469V12.4062C98.5417 11.7969 98.401 11.3464 98.125 11.0547C97.8542 10.763 97.4297 10.6172 96.8516 10.6172C96.3828 10.6172 95.9714 10.7422 95.6172 10.9922C95.263 11.2422 94.987 11.5703 94.7891 11.9766V18H93.3438V6H94.7891V10.5703Z" fill="#C4C4CC"/>
<path d="M7.999 5.16653C3.582 5.16653 0 8.76253 0 13.1985C0 16.7465 2.292 19.7565 5.472 20.8195C5.872 20.8935 6.018 20.6455 6.018 20.4325C6.018 20.2415 6.011 19.7365 6.007 19.0665C3.782 19.5515 3.312 17.9895 3.312 17.9895C2.949 17.0615 2.424 16.8145 2.424 16.8145C1.697 16.3165 2.478 16.3265 2.478 16.3265C3.281 16.3835 3.703 17.1545 3.703 17.1545C4.417 18.3815 5.576 18.0275 6.032 17.8215C6.104 17.3025 6.311 16.9485 6.54 16.7475C4.764 16.5445 2.896 15.8555 2.896 12.7785C2.896 11.9015 3.208 11.1845 3.72 10.6225C3.637 10.4195 3.363 9.60253 3.798 8.49753C3.798 8.49753 4.47 8.28153 5.998 9.32053C6.636 9.14253 7.32 9.05353 8.001 9.05053C8.68 9.05453 9.365 9.14253 10.004 9.32153C11.531 8.28253 12.202 8.49853 12.202 8.49853C12.638 9.60453 12.364 10.4205 12.282 10.6235C12.795 11.1855 13.104 11.9025 13.104 12.7795C13.104 15.8645 11.234 16.5435 9.452 16.7425C9.739 16.9905 9.995 17.4805 9.995 18.2295C9.995 19.3035 9.985 20.1695 9.985 20.4325C9.985 20.6475 10.129 20.8975 10.535 20.8185C13.71 19.7545 16 16.7455 16 13.1985C16 8.76253 12.418 5.16653 7.999 5.16653Z" fill="#C4C4CC"/>
</svg>
